<svg width="69" height="32" viewBox="0 0 349 160" fill="none" xmlns="http://www.w3.org/2000/svg">
<path d="M312.512 117.195V107.143C312.512 106.609 312.948 106.183 313.481 106.17C321.526 106.004 327.728 103.731 331.927 99.4077C334.397 96.8623 336.199 93.5327 337.287 89.501C337.425 88.9885 337.934 88.6679 338.451 88.7892L348.235 91.1056C348.771 91.2315 349.107 91.7835 348.969 92.3168C347.357 98.477 344.526 103.675 340.545 107.777C334.022 114.492 324.934 117.992 313.518 118.185C312.969 118.194 312.512 117.743 312.512 117.195Z" fill="#E1134C"></path>
<path d="M14.1379 100.047C13.5273 100.214 12.6545 100.379 11.517 100.546C10.3808 100.712 9.14773 100.796 7.81657 100.796C5.04483 100.796 3.04841 100.338 1.82917 99.4231C0.609305 98.5083 0 96.7476 0 94.1426V69.4421C0 67.8356 0.415007 66.4353 1.24753 65.2417C2.07881 64.0502 3.21504 63.0108 4.65687 62.1229C6.59671 60.9578 8.8566 60.0731 11.4347 59.4631C14.0127 58.8513 16.716 58.547 19.5436 58.547C25.5857 58.547 28.6084 60.683 28.6084 64.9513C28.6084 65.9492 28.4687 66.878 28.1928 67.7363C27.9148 68.5976 27.5822 69.3309 27.1948 69.9421C26.1415 69.7207 24.6168 69.6087 22.6209 69.6087C21.1784 69.6087 19.6964 69.7755 18.171 70.1068C16.6461 70.4388 15.3018 70.9387 14.1379 71.604V100.047Z" fill="#20204B"></path>
<path d="M50.2308 91.1492C51.1726 91.1492 52.212 91.053 53.3496 90.858C54.4851 90.665 55.3321 90.401 55.8862 90.0677V83.415L49.8974 83.9137C48.3456 84.0249 47.0698 84.3582 46.0732 84.9116C45.0747 85.4661 44.576 86.298 44.576 87.406C44.576 88.5159 45.0042 89.4169 45.865 90.1105C46.724 90.8035 48.1797 91.1492 50.2308 91.1492ZM49.5648 58.4663C52.5599 58.4663 55.2895 58.7705 57.7581 59.3793C60.2236 59.9905 62.3314 60.9179 64.0774 62.1661C65.8236 63.413 67.1674 64.9932 68.1106 66.9059C69.0531 68.8207 69.5254 71.0793 69.5254 73.6844V92.3137C69.5254 93.7555 69.1223 94.9334 68.3194 95.8475C67.5151 96.7625 66.558 97.5516 65.4502 98.2188C61.8452 100.38 56.7727 101.461 50.2308 101.461C47.2911 101.461 44.6446 101.184 42.2891 100.63C39.931 100.075 37.9069 99.245 36.2174 98.1351C34.5252 97.0273 33.2242 95.6119 32.3088 93.894C31.3938 92.1761 30.9355 90.1797 30.9355 87.906C30.9355 84.0803 32.073 81.1419 34.3467 79.0908C36.6179 77.0391 40.1385 75.7626 44.9079 75.2658L55.8019 74.1013V73.5191C55.8019 71.9094 55.0963 70.7625 53.6822 70.0669C52.2674 69.3741 50.2308 69.0262 47.5702 69.0262C45.5174 69.0262 43.4799 69.2495 41.4559 69.6935C39.4325 70.1368 37.6165 70.6913 36.0092 71.356C35.2881 70.8562 34.6781 70.0959 34.1801 69.069C33.6808 68.0422 33.4313 66.9771 33.4313 65.8665C33.4313 64.4253 33.777 63.2766 34.4707 62.4145C35.1641 61.5562 36.2306 60.8225 37.673 60.2124C39.2802 59.6013 41.1785 59.1591 43.37 58.8806C45.5587 58.6039 47.6237 58.4663 49.5648 58.4663Z" fill="#20204B"></path>
<path d="M96.8862 90.2344C99.6579 90.2344 101.779 89.3479 103.248 87.5727C104.716 85.7983 105.452 83.1648 105.452 79.6719C105.452 76.1242 104.773 73.5461 103.415 71.9377C102.055 70.3299 100.047 69.525 97.3847 69.525C96.3316 69.525 95.3594 69.652 94.474 69.9004C93.5863 70.1488 92.8379 70.4411 92.2286 70.7751V89.0693C92.8945 89.4025 93.6139 89.6811 94.3918 89.9012C95.167 90.1244 95.9989 90.2344 96.8862 90.2344ZM99.0485 101.379C97.7174 101.379 96.4982 101.282 95.3883 101.087C94.2786 100.893 93.2542 100.63 92.3117 100.298V114.935C91.7005 115.102 90.8283 115.267 89.692 115.433C88.5552 115.6 87.3228 115.683 85.9916 115.683C83.218 115.683 81.2215 115.226 80.0036 114.31C78.7844 113.396 78.1738 111.636 78.1738 109.029V68.5285C78.1738 67.0319 78.4919 65.7837 79.1302 64.7859C79.7665 63.7872 80.6399 62.9289 81.7498 62.2071C83.4671 61.0991 85.6722 60.1988 88.3616 59.5032C91.0497 58.8115 94.0584 58.4664 97.3847 58.4664C100.711 58.4664 103.761 58.8808 106.533 59.7127C109.304 60.5439 111.689 61.8211 113.686 63.539C115.682 65.2567 117.22 67.4469 118.3 70.1079C119.383 72.7696 119.923 75.9596 119.923 79.6719C119.923 83.2202 119.396 86.339 118.343 89.0284C117.289 91.7184 115.82 93.977 113.936 95.8056C112.049 97.6354 109.846 99.0238 107.322 99.9651C104.8 100.906 102.042 101.379 99.0485 101.379Z" fill="#20204B"></path>
<path d="M127.156 60.2931C127.765 60.1284 128.638 59.9618 129.776 59.7952C130.911 59.6278 132.146 59.5468 133.476 59.5468C136.247 59.5468 138.243 60.0027 139.465 60.9169C140.683 61.8338 141.294 63.5943 141.294 66.1976V100.047C140.683 100.214 139.811 100.38 138.673 100.548C137.538 100.712 136.304 100.796 134.973 100.796C132.2 100.796 130.204 100.338 128.985 99.4231C127.765 98.5083 127.156 96.7495 127.156 94.1413V60.2931ZM126.49 48.4844C126.49 46.3779 127.198 44.6029 128.611 43.1615C130.025 41.7197 131.897 40.9998 134.224 40.9998C136.553 40.9998 138.424 41.7197 139.838 43.1615C141.253 44.6029 141.959 46.3779 141.959 48.4844C141.959 50.5921 141.253 52.3652 139.838 53.8071C138.424 55.2483 136.553 55.9683 134.224 55.9683C131.897 55.9683 130.025 55.2483 128.611 53.8071C127.198 52.3652 126.49 50.5921 126.49 48.4844Z" fill="#20204B"></path>
<path d="M168.992 90.2344C171.763 90.2344 173.884 89.3479 175.354 87.5727C176.822 85.7983 177.558 83.1648 177.558 79.6719C177.558 76.1242 176.878 73.5461 175.52 71.9377C174.16 70.3299 172.152 69.525 169.491 69.525C168.437 69.525 167.465 69.652 166.579 69.9004C165.691 70.1488 164.942 70.4411 164.334 70.7751V89.0693C165 89.4025 165.718 89.6811 166.497 89.9012C167.273 90.1244 168.104 90.2344 168.992 90.2344ZM171.154 101.379C169.823 101.379 168.603 101.282 167.494 101.087C166.385 100.893 165.359 100.63 164.416 100.298V114.935C163.806 115.102 162.933 115.267 161.799 115.433C160.661 115.6 159.428 115.683 158.097 115.683C155.324 115.683 153.328 115.226 152.11 114.31C150.889 113.396 150.279 111.636 150.279 109.029V68.5285C150.279 67.0319 150.598 65.7837 151.235 64.7859C151.872 63.7872 152.746 62.9289 153.856 62.2071C155.573 61.0991 157.778 60.1988 160.467 59.5032C163.156 58.8115 166.164 58.4664 169.491 58.4664C172.817 58.4664 175.866 58.8808 178.638 59.7127C181.41 60.5439 183.794 61.8211 185.791 63.539C187.788 65.2567 189.325 67.4469 190.407 70.1079C191.488 72.7696 192.028 75.9596 192.028 79.6719C192.028 83.2202 191.501 86.339 190.448 89.0284C189.394 91.7184 187.924 93.977 186.041 95.8056C184.154 97.6354 181.951 99.0238 179.428 99.9651C176.906 100.906 174.148 101.379 171.154 101.379Z" fill="#20204B"></path>
<path d="M216.391 91.1492C217.333 91.1492 218.373 91.053 219.509 90.858C220.646 90.665 221.493 90.401 222.046 90.0677V83.415L216.058 83.9137C214.505 84.0249 213.23 84.3582 212.233 84.9116C211.235 85.4661 210.736 86.298 210.736 87.406C210.736 88.5159 211.165 89.4169 212.024 90.1105C212.884 90.8035 214.339 91.1492 216.391 91.1492ZM215.725 58.4663C218.721 58.4663 221.449 58.7705 223.918 59.3793C226.383 59.9905 228.492 60.9179 230.238 62.1661C231.983 63.413 233.327 64.9932 234.271 66.9059C235.214 68.8207 235.686 71.0793 235.686 73.6844V92.3137C235.686 93.7555 235.283 94.9334 234.48 95.8475C233.675 96.7625 232.719 97.5516 231.61 98.2188C228.006 100.38 222.933 101.461 216.391 101.461C213.452 101.461 210.806 101.184 208.449 100.63C206.091 100.075 204.067 99.245 202.377 98.1351C200.685 97.0273 199.385 95.6119 198.469 93.894C197.554 92.1761 197.096 90.1797 197.096 87.906C197.096 84.0803 198.234 81.1419 200.507 79.0908C202.778 77.0391 206.298 75.7626 211.068 75.2658L221.963 74.1013V73.5191C221.963 71.9094 221.256 70.7625 219.843 70.0669C218.428 69.3741 216.391 69.0262 213.731 69.0262C211.678 69.0262 209.64 69.2495 207.617 69.6935C205.592 70.1368 203.776 70.6913 202.17 71.356C201.448 70.8562 200.838 70.0959 200.341 69.069C199.842 68.0422 199.591 66.9771 199.591 65.8665C199.591 64.4253 199.937 63.2766 200.631 62.4145C201.324 61.5562 202.392 60.8225 203.834 60.2124C205.44 59.6013 207.338 59.1591 209.531 58.8806C211.718 58.6039 213.784 58.4663 215.725 58.4663Z" fill="#20204B"></path>
<path d="M263.708 87.9033C264.817 87.9033 265.801 87.7787 266.662 87.529C267.52 87.2808 268.311 86.9349 269.032 86.4896V70.5233C268.422 70.2466 267.797 70.0108 267.161 69.8158C266.522 69.6209 265.675 69.5254 264.624 69.5254C262.239 69.5254 260.299 70.2604 258.802 71.7274C257.305 73.1969 256.558 75.5682 256.558 78.841C256.558 82.332 257.236 84.7172 258.594 85.9917C259.951 87.2669 261.658 87.9033 263.708 87.9033ZM269.281 97.0523C268.172 97.4967 266.939 97.8414 265.58 98.0917C264.222 98.3412 262.71 98.4671 261.048 98.4671C258.552 98.4671 256.183 98.1211 253.937 97.4264C251.692 96.7327 249.723 95.5977 248.033 94.0183C246.341 92.4369 244.997 90.3996 244.001 87.9033C243.003 85.41 242.502 82.3623 242.502 78.7556C242.502 75.4292 243.014 72.5052 244.041 69.9813C245.066 67.4598 246.507 65.3389 248.366 63.6203C250.222 61.9007 252.482 60.6123 255.143 59.7539C257.804 58.8937 260.769 58.4649 264.042 58.4649C265.593 58.4649 267.118 58.5742 268.616 58.7962C270.113 59.0175 271.512 59.3245 272.816 59.7111C274.118 60.101 275.297 60.516 276.351 60.9574C277.402 61.4046 278.291 61.8741 279.012 62.3722C280.119 63.1506 280.994 64.0228 281.631 64.9918C282.268 65.9633 282.587 67.197 282.587 68.6916V99.5473C282.587 102.485 282.048 105.022 280.965 107.157C279.884 109.292 278.387 111.066 276.475 112.48C274.563 113.893 272.317 114.934 269.738 115.599C267.161 116.263 264.402 116.595 261.463 116.595C258.469 116.595 255.835 116.359 253.564 115.889C251.288 115.416 249.488 114.739 248.159 113.851C246.161 112.522 245.163 110.635 245.163 108.196C245.163 106.919 245.425 105.755 245.953 104.703C246.48 103.65 247.075 102.874 247.742 102.375C249.348 103.262 251.164 104.01 253.189 104.621C255.212 105.23 257.332 105.535 259.55 105.535C262.488 105.535 264.845 105.036 266.62 104.038C268.393 103.04 269.281 101.432 269.281 99.2153V97.0523Z" fill="#20204B"></path>
<path d="M311.363 69.5268C309.036 69.5268 307.233 70.4272 305.96 72.2288C304.681 74.0315 304.046 76.5938 304.046 79.9221C304.046 83.415 304.681 86.0352 305.96 87.7801C307.233 89.527 309.036 90.401 311.363 90.401C313.693 90.401 315.494 89.5144 316.769 87.7392C318.045 85.9648 318.683 83.3596 318.683 79.9221C318.683 76.5938 318.045 74.0315 316.769 72.2288C315.494 70.4272 313.693 69.5268 311.363 69.5268ZM333.154 79.9221C333.154 83.2484 332.641 86.2415 331.614 88.9045C330.588 91.5642 329.12 93.8248 327.208 95.6809C325.294 97.539 323.008 98.9664 320.346 99.965C317.685 100.964 314.691 101.461 311.363 101.461C308.036 101.461 305.044 100.976 302.383 100.006C299.72 99.0375 297.433 97.6227 295.522 95.7646C293.608 93.9085 292.138 91.6479 291.115 88.9861C290.088 86.3264 289.574 83.3049 289.574 79.9221C289.574 76.6511 290.101 73.6844 291.155 71.0234C292.206 68.3616 293.69 66.1023 295.604 64.2462C297.518 62.3881 299.804 60.9607 302.465 59.9629C305.126 58.9631 308.092 58.4663 311.363 58.4663C314.636 58.4663 317.601 58.978 320.262 60.0037C322.923 61.0311 325.21 62.4718 327.124 64.3279C329.036 66.188 330.519 68.4446 331.572 71.1063C332.626 73.7673 333.154 76.7057 333.154 79.9221Z" fill="#20204B"></path>
</svg>
